<mxfile host="Electron" agent="Mozilla/5.0 (Windows NT 10.0; Win64; x64) AppleWebKit/537.36 (KHTML, like Gecko) draw.io/24.7.8 Chrome/128.0.6613.36 Electron/32.0.1 Safari/537.36" version="24.7.8">
  <diagram name="Page-1" id="PUPkotpHlF0dXcMMUbJn">
    <mxGraphModel dx="836" dy="538" grid="0" gridSize="10" guides="1" tooltips="1" connect="1" arrows="1" fold="1" page="1" pageScale="1" pageWidth="850" pageHeight="1100" math="0" shadow="0">
      <root>
        <mxCell id="0" />
        <mxCell id="1" parent="0" />
        <mxCell id="zuD_gsq9XS0x65aMne33-1" value="&lt;div style=&quot;text-align: left;&quot;&gt;&lt;span style=&quot;background-color: initial;&quot;&gt;1. Upload videos&lt;/span&gt;&lt;/div&gt;&lt;div&gt;2. Feed / timeline videos - distribution&lt;/div&gt;&lt;div style=&quot;text-align: left;&quot;&gt;3. Storage of videos&lt;/div&gt;" style="text;html=1;align=center;verticalAlign=middle;resizable=0;points=[];autosize=1;strokeColor=none;fillColor=none;" vertex="1" parent="1">
          <mxGeometry x="17" y="73" width="220" height="60" as="geometry" />
        </mxCell>
        <mxCell id="zuD_gsq9XS0x65aMne33-2" value="&lt;div style=&quot;&quot;&gt;&lt;span style=&quot;background-color: initial;&quot;&gt;1. Eventual consistency&lt;/span&gt;&lt;/div&gt;&lt;div&gt;2. Fault tolerant&lt;/div&gt;&lt;div&gt;3. High availability&lt;/div&gt;&lt;div&gt;4. Performance of upload - low SLAs&lt;/div&gt;&lt;div&gt;5. Low latency between upload and user visibility (few minutes)&lt;/div&gt;&lt;div&gt;6. Low latency when distributed the video.&lt;/div&gt;&lt;div&gt;&lt;br&gt;&lt;/div&gt;" style="text;html=1;align=left;verticalAlign=middle;resizable=0;points=[];autosize=1;strokeColor=none;fillColor=none;" vertex="1" parent="1">
          <mxGeometry x="27" y="128" width="353" height="113" as="geometry" />
        </mxCell>
        <mxCell id="zuD_gsq9XS0x65aMne33-3" value="" style="swimlane;startSize=0;" vertex="1" parent="1">
          <mxGeometry x="143" y="261" width="727" height="447" as="geometry" />
        </mxCell>
        <mxCell id="zuD_gsq9XS0x65aMne33-4" value="Ingestion Service" style="rounded=1;whiteSpace=wrap;html=1;fillColor=#f8cecc;strokeColor=#b85450;" vertex="1" parent="zuD_gsq9XS0x65aMne33-3">
          <mxGeometry x="56" y="176" width="120" height="60" as="geometry" />
        </mxCell>
        <mxCell id="zuD_gsq9XS0x65aMne33-5" value="" style="edgeStyle=orthogonalEdgeStyle;rounded=0;orthogonalLoop=1;jettySize=auto;html=1;" edge="1" parent="zuD_gsq9XS0x65aMne33-3" source="zuD_gsq9XS0x65aMne33-6" target="zuD_gsq9XS0x65aMne33-15">
          <mxGeometry relative="1" as="geometry" />
        </mxCell>
        <mxCell id="zuD_gsq9XS0x65aMne33-6" value="Videos Database" style="verticalLabelPosition=bottom;html=1;verticalAlign=top;align=center;strokeColor=none;fillColor=#00BEF2;shape=mxgraph.azure.storage_blob;" vertex="1" parent="zuD_gsq9XS0x65aMne33-3">
          <mxGeometry x="460" y="179" width="73" height="66" as="geometry" />
        </mxCell>
        <mxCell id="zuD_gsq9XS0x65aMne33-7" value="Video Metadata (NoSQL)" style="shape=cylinder3;whiteSpace=wrap;html=1;boundedLbl=1;backgroundOutline=1;size=15;fillColor=#fff2cc;strokeColor=#d6b656;" vertex="1" parent="zuD_gsq9XS0x65aMne33-3">
          <mxGeometry x="620" y="169" width="60" height="80" as="geometry" />
        </mxCell>
        <mxCell id="zuD_gsq9XS0x65aMne33-8" value="" style="edgeStyle=orthogonalEdgeStyle;rounded=0;orthogonalLoop=1;jettySize=auto;html=1;" edge="1" parent="zuD_gsq9XS0x65aMne33-3" source="zuD_gsq9XS0x65aMne33-9" target="zuD_gsq9XS0x65aMne33-12">
          <mxGeometry relative="1" as="geometry" />
        </mxCell>
        <mxCell id="zuD_gsq9XS0x65aMne33-9" value="" style="sketch=0;aspect=fixed;pointerEvents=1;shadow=0;dashed=0;html=1;strokeColor=none;labelPosition=center;verticalLabelPosition=bottom;verticalAlign=top;align=center;fillColor=#00188D;shape=mxgraph.azure.queue_generic" vertex="1" parent="zuD_gsq9XS0x65aMne33-3">
          <mxGeometry x="212" y="55" width="130" height="39" as="geometry" />
        </mxCell>
        <mxCell id="zuD_gsq9XS0x65aMne33-10" value="" style="endArrow=classic;html=1;rounded=0;entryX=0;entryY=0.5;entryDx=0;entryDy=0;entryPerimeter=0;" edge="1" parent="zuD_gsq9XS0x65aMne33-3" target="zuD_gsq9XS0x65aMne33-9">
          <mxGeometry width="50" height="50" relative="1" as="geometry">
            <mxPoint x="111" y="176" as="sourcePoint" />
            <mxPoint x="161" y="126" as="targetPoint" />
            <Array as="points">
              <mxPoint x="111" y="75" />
            </Array>
          </mxGeometry>
        </mxCell>
        <mxCell id="zuD_gsq9XS0x65aMne33-11" value="" style="edgeStyle=orthogonalEdgeStyle;rounded=0;orthogonalLoop=1;jettySize=auto;html=1;" edge="1" parent="zuD_gsq9XS0x65aMne33-3" source="zuD_gsq9XS0x65aMne33-12" target="zuD_gsq9XS0x65aMne33-6">
          <mxGeometry relative="1" as="geometry" />
        </mxCell>
        <mxCell id="zuD_gsq9XS0x65aMne33-12" value="Workers" style="verticalLabelPosition=bottom;html=1;verticalAlign=top;align=center;strokeColor=none;fillColor=#00BEF2;shape=mxgraph.azure.worker_roles;" vertex="1" parent="zuD_gsq9XS0x65aMne33-3">
          <mxGeometry x="457" y="34" width="79" height="80" as="geometry" />
        </mxCell>
        <mxCell id="zuD_gsq9XS0x65aMne33-13" value="" style="endArrow=classic;html=1;rounded=0;exitX=1;exitY=0.5;exitDx=0;exitDy=0;exitPerimeter=0;entryX=0.5;entryY=0;entryDx=0;entryDy=0;entryPerimeter=0;" edge="1" parent="zuD_gsq9XS0x65aMne33-3" source="zuD_gsq9XS0x65aMne33-12" target="zuD_gsq9XS0x65aMne33-7">
          <mxGeometry width="50" height="50" relative="1" as="geometry">
            <mxPoint x="583" y="118" as="sourcePoint" />
            <mxPoint x="633" y="68" as="targetPoint" />
            <Array as="points">
              <mxPoint x="650" y="74" />
            </Array>
          </mxGeometry>
        </mxCell>
        <mxCell id="zuD_gsq9XS0x65aMne33-14" value="SQL" style="shape=cylinder3;whiteSpace=wrap;html=1;boundedLbl=1;backgroundOutline=1;size=15;fillColor=#fff2cc;strokeColor=#d6b656;" vertex="1" parent="zuD_gsq9XS0x65aMne33-3">
          <mxGeometry x="285" y="280" width="60" height="80" as="geometry" />
        </mxCell>
        <mxCell id="zuD_gsq9XS0x65aMne33-15" value="Video Service" style="rounded=1;whiteSpace=wrap;html=1;fillColor=#f8cecc;strokeColor=#b85450;" vertex="1" parent="zuD_gsq9XS0x65aMne33-3">
          <mxGeometry x="437" y="345" width="120" height="60" as="geometry" />
        </mxCell>
        <mxCell id="zuD_gsq9XS0x65aMne33-16" value="" style="edgeStyle=orthogonalEdgeStyle;rounded=0;orthogonalLoop=1;jettySize=auto;html=1;" edge="1" parent="1" source="zuD_gsq9XS0x65aMne33-17" target="zuD_gsq9XS0x65aMne33-14">
          <mxGeometry relative="1" as="geometry" />
        </mxCell>
        <mxCell id="zuD_gsq9XS0x65aMne33-17" value="User Service" style="rounded=1;whiteSpace=wrap;html=1;fillColor=#f8cecc;strokeColor=#b85450;" vertex="1" parent="1">
          <mxGeometry x="199" y="550" width="120" height="60" as="geometry" />
        </mxCell>
        <mxCell id="zuD_gsq9XS0x65aMne33-18" value="" style="edgeStyle=orthogonalEdgeStyle;rounded=0;orthogonalLoop=1;jettySize=auto;html=1;entryX=0;entryY=0.5;entryDx=0;entryDy=0;" edge="1" parent="1" source="zuD_gsq9XS0x65aMne33-19" target="zuD_gsq9XS0x65aMne33-4">
          <mxGeometry relative="1" as="geometry">
            <Array as="points">
              <mxPoint x="110" y="405" />
              <mxPoint x="110" y="467" />
            </Array>
          </mxGeometry>
        </mxCell>
        <mxCell id="zuD_gsq9XS0x65aMne33-19" value="" style="html=1;verticalLabelPosition=bottom;align=center;labelBackgroundColor=#ffffff;verticalAlign=top;strokeWidth=2;strokeColor=#0080F0;shadow=0;dashed=0;shape=mxgraph.ios7.icons.smartphone;flipV=1;" vertex="1" parent="1">
          <mxGeometry x="50" y="383" width="32" height="43" as="geometry" />
        </mxCell>
        <mxCell id="zuD_gsq9XS0x65aMne33-20" value="" style="edgeStyle=orthogonalEdgeStyle;rounded=0;orthogonalLoop=1;jettySize=auto;html=1;" edge="1" parent="1" source="zuD_gsq9XS0x65aMne33-22" target="zuD_gsq9XS0x65aMne33-4">
          <mxGeometry relative="1" as="geometry">
            <Array as="points">
              <mxPoint x="110" y="508" />
              <mxPoint x="110" y="467" />
            </Array>
          </mxGeometry>
        </mxCell>
        <mxCell id="zuD_gsq9XS0x65aMne33-21" value="" style="edgeStyle=orthogonalEdgeStyle;rounded=0;orthogonalLoop=1;jettySize=auto;html=1;entryX=0;entryY=0.5;entryDx=0;entryDy=0;" edge="1" parent="1" source="zuD_gsq9XS0x65aMne33-22" target="zuD_gsq9XS0x65aMne33-17">
          <mxGeometry relative="1" as="geometry">
            <Array as="points">
              <mxPoint x="110" y="508" />
              <mxPoint x="110" y="580" />
            </Array>
          </mxGeometry>
        </mxCell>
        <mxCell id="zuD_gsq9XS0x65aMne33-22" value="" style="outlineConnect=0;dashed=0;verticalLabelPosition=bottom;verticalAlign=top;align=center;html=1;shape=mxgraph.aws3.mobile_client;fillColor=#D2D3D3;gradientColor=none;flipV=1;" vertex="1" parent="1">
          <mxGeometry x="45.75" y="477" width="40.5" height="63" as="geometry" />
        </mxCell>
        <mxCell id="zuD_gsq9XS0x65aMne33-23" value="" style="edgeStyle=orthogonalEdgeStyle;rounded=0;orthogonalLoop=1;jettySize=auto;html=1;" edge="1" parent="1" source="zuD_gsq9XS0x65aMne33-24" target="zuD_gsq9XS0x65aMne33-17">
          <mxGeometry relative="1" as="geometry">
            <Array as="points">
              <mxPoint x="111" y="624" />
              <mxPoint x="111" y="580" />
            </Array>
          </mxGeometry>
        </mxCell>
        <mxCell id="zuD_gsq9XS0x65aMne33-24" value="" style="points=[[0.03,0.03,0],[0.5,0,0],[0.97,0.03,0],[1,0.4,0],[0.97,0.745,0],[0.5,1,0],[0.03,0.745,0],[0,0.4,0]];verticalLabelPosition=bottom;sketch=0;html=1;verticalAlign=top;aspect=fixed;align=center;pointerEvents=1;shape=mxgraph.cisco19.workstation;fillColor=#005073;strokeColor=none;flipV=1;direction=west;" vertex="1" parent="1">
          <mxGeometry x="41" y="604" width="50" height="40" as="geometry" />
        </mxCell>
      </root>
    </mxGraphModel>
  </diagram>
</mxfile>
